<svg fill="#FFFFFF" height="200px" width="200px" version="1.1" id="Capa_1" xmlns="http://www.w3.org/2000/svg" xmlns:xlink="http://www.w3.org/1999/xlink" viewBox="0 0 297.01 297.01" xml:space="preserve" stroke="#FFFFFF"><g id="SVGRepo_bgCarrier" stroke-width="0"></g><g id="SVGRepo_tracerCarrier" stroke-linecap="round" stroke-linejoin="round"></g><g id="SVGRepo_iconCarrier"> <g> <path d="M148.505,0.005C66.621,0.005,0,66.624,0,148.505s66.621,148.5,148.505,148.5s148.505-66.619,148.505-148.5 S230.389,0.005,148.505,0.005z M109.804,150.244c0.149-1.151,0.148-2.318,0-3.475c0.911-20.563,17.918-37.012,38.701-37.012 c21.365,0,38.749,17.382,38.749,38.747s-17.384,38.747-38.749,38.747C127.723,187.252,110.716,170.806,109.804,150.244z M138.689,27.029l-13.21,18.016c-3.04,4.144-3.423,9.664-0.986,14.184l13.344,24.789c-20.959,3.454-38.579,16.906-47.799,35.283 l-0.845-1.04c-3.935-4.843-10.7-6.304-16.287-3.512l-13.722,6.86L45.836,82.898C65.855,51.677,99.719,30.151,138.689,27.029z M26.629,148.505c0-10.094,1.241-19.9,3.565-29.284l8.77,25.434c1.251,3.622,4.006,6.533,7.555,7.982 c3.554,1.449,7.556,1.301,10.986-0.416l17.757-8.882l8.06,9.916c1.065,14.764,7.047,28.183,16.323,38.62l-7.51,4.837 c-3.469,2.234-5.704,5.951-6.056,10.064l-2.175,25.551l-14.178,9.085C43.381,219.041,26.629,185.696,26.629,148.505z M93.998,257.486l9.803-6.285c3.482-2.232,5.73-5.955,6.08-10.081l2.174-25.567l10.771-6.937c7.89,3.384,16.568,5.261,25.679,5.261 c36.047,0,65.375-29.325,65.375-65.372c0-28.713-18.616-53.145-44.406-61.903l-17.548-32.593l19.316-25.239 c56.376,10.681,99.139,60.304,99.139,119.735c0,26.047-8.218,50.209-22.192,70.04l-15.52-1.585l-1.24-17.186 c-0.531-7.331-6.914-12.851-14.241-12.317c-7.332,0.531-12.848,6.904-12.317,14.238l2.048,28.334 c0.464,6.446,5.495,11.628,11.928,12.283l6.555,0.672c-20.989,17.113-47.765,27.394-76.895,27.394 C128.922,270.378,110.41,265.728,93.998,257.486z"></path> <path d="M176.074,148.505c0-15.224-12.346-27.566-27.569-27.566c-2.02,0-3.986,0.229-5.88,0.644 c2.327,2.484,3.761,5.814,3.761,9.487c0,7.674-6.227,13.901-13.904,13.901c-4.1,0-7.775-1.784-10.318-4.61 c-0.795,2.576-1.227,5.306-1.227,8.144c0,15.224,12.346,27.566,27.569,27.566C163.729,176.071,176.074,163.729,176.074,148.505z"></path> </g> </g></svg>