<svg fill="#FFFFFF" height="64px" width="64px" version="1.1" id="Layer_1" xmlns="http://www.w3.org/2000/svg" xmlns:xlink="http://www.w3.org/1999/xlink" viewBox="0 0 491.52 491.52" xml:space="preserve" stroke="#FFFFFF"><g id="SVGRepo_bgCarrier" stroke-width="0"></g><g id="SVGRepo_tracerCarrier" stroke-linecap="round" stroke-linejoin="round"></g><g id="SVGRepo_iconCarrier"> <g> <g> <path d="M485.721,0L5.799,0.001C2.596,0.001,0,2.595,0,5.798v44.628c0,3.203,2.596,5.799,5.799,5.799h479.922 c3.203,0,5.799-2.597,5.799-5.799V5.798C491.52,2.595,488.923,0,485.721,0z"></path> </g> </g> <g> <g> <path d="M485.721,362.665L5.799,362.667c-3.203,0-5.799,2.594-5.799,5.797v18.435c0,3.203,2.596,5.799,5.799,5.799h232.034v29.221 c-15.64,3.618-27.36,17.593-27.36,34.313c0,19.456,15.828,35.288,35.288,35.288c19.455,0,35.284-15.832,35.284-35.288 c0-16.72-11.72-30.695-27.356-34.312v-29.222h232.032c3.203,0,5.799-2.596,5.799-5.799v-18.435 C491.52,365.261,488.923,362.665,485.721,362.665z M265.19,456.232c0,10.715-8.718,19.433-19.428,19.433 c-10.715,0-19.433-8.718-19.433-19.433c0-10.452,8.313-18.941,18.665-19.354c0.265,0.027,0.495,0.154,0.767,0.154 c0.272,0,0.502-0.128,0.766-0.154C256.878,437.291,265.19,445.78,265.19,456.232z"></path> </g> </g> <g> <g> <path d="M24.968,72.081V346.81h441.583V72.081H24.968z M290.722,95.021c6.686,0,12.107,5.421,12.107,12.108 c0,6.687-5.421,12.108-12.107,12.108c-6.689,0-12.109-5.421-12.109-12.108C278.613,100.442,284.033,95.021,290.722,95.021z M302.829,211.412c0,6.687-5.421,12.107-12.107,12.107c-6.689,0-12.108-5.421-12.108-12.107s5.42-12.108,12.108-12.108 C297.408,199.304,302.829,204.726,302.829,211.412z M290.722,129.782c6.686,0,12.107,5.421,12.107,12.108 c0,6.687-5.421,12.108-12.107,12.108c-6.689,0-12.109-5.421-12.109-12.108C278.613,135.203,284.033,129.782,290.722,129.782z M290.722,164.543c6.686,0,12.107,5.421,12.107,12.108c0,6.688-5.421,12.108-12.107,12.108c-6.689,0-12.109-5.42-12.109-12.108 C278.613,169.965,284.033,164.543,290.722,164.543z M180.73,212.239v-62.843h28.532v62.843v10.078H180.73V212.239z M118.26,212.239V96.04h28.531v116.199v10.078H118.26V212.239z M55.789,212.239v-80.628H84.32v80.628v10.078H55.789V212.239z M209.26,323.87H55.788c-4.378,0-7.927-3.546-7.927-7.927c0-4.382,3.55-7.928,7.927-7.928H209.26c4.378,0,7.927,3.546,7.927,7.928 C217.187,320.324,213.638,323.87,209.26,323.87z M209.26,285.927H55.788c-4.378,0-7.927-3.546-7.927-7.928 c0-4.381,3.55-7.927,7.927-7.927H209.26c4.378,0,7.927,3.546,7.927,7.927C217.187,282.381,213.638,285.927,209.26,285.927z M435.731,323.87H282.258c-4.378,0-7.927-3.546-7.927-7.927c0-4.382,3.55-7.928,7.927-7.928H435.73 c4.378,0,7.928,3.546,7.928,7.928C443.659,320.324,440.109,323.87,435.731,323.87z M435.731,285.927H282.258 c-4.378,0-7.927-3.546-7.927-7.928c0-4.381,3.55-7.927,7.927-7.927H435.73c4.378,0,7.928,3.546,7.928,7.927 C443.659,282.381,440.109,285.927,435.731,285.927z M435.731,219.339H323.21c-4.378,0-7.928-3.546-7.928-7.927 c0-4.382,3.55-7.928,7.928-7.928h112.521c4.378,0,7.928,3.546,7.928,7.928C443.659,215.793,440.109,219.339,435.731,219.339z M435.731,184.577H323.21c-4.378,0-7.928-3.546-7.928-7.927c0-4.382,3.55-7.928,7.928-7.928h112.521 c4.378,0,7.928,3.546,7.928,7.928C443.659,181.031,440.109,184.577,435.731,184.577z M435.731,149.816H323.21 c-4.378,0-7.928-3.546-7.928-7.928c0-4.381,3.55-7.927,7.928-7.927h112.521c4.378,0,7.928,3.546,7.928,7.927 C443.659,146.27,440.109,149.816,435.731,149.816z M435.731,115.055H323.21c-4.378,0-7.928-3.546-7.928-7.928 c0-4.381,3.55-7.927,7.928-7.927h112.521c4.378,0,7.928,3.546,7.928,7.927C443.659,111.509,440.109,115.055,435.731,115.055z"></path> </g> </g> </g></svg>